HIERARCHY
ROOT Hips
{
  OFFSET -82.9664 101.758 -139.547
  CHANNELS 6 Xposition Yposition Zposition Zrotation Xrotation Yrotation
  JOINT RightUpLeg
  {
    OFFSET -8.9458 -8.66707 0.101652
    CHANNELS 3 Zrotation Xrotation Yrotation
    JOINT RightLeg
    {
      OFFSET 0 -44.4227 1.3727
      CHANNELS 3 Zrotation Xrotation Yrotation
      JOINT RightFoot
      {
        OFFSET 0.253549 -42.0924 -1.46059
        CHANNELS 3 Zrotation Xrotation Yrotation
        JOINT RightToes
        {
          OFFSET 0.04 -4.41509 8.4991
          CHANNELS 3 Zrotation Xrotation Yrotation
          End Site
          {
            OFFSET -0.08 -0.137448 9.77979
          }
        }
      }
    }
  }
  JOINT Spine
  {
    OFFSET 0 11.8905 0
    CHANNELS 3 Zrotation Xrotation Yrotation
    JOINT Spine1
    {
      OFFSET 0 25.6574 0.127663
      CHANNELS 3 Zrotation Xrotation Yrotation
      JOINT HEad
      {
        OFFSET 0 8.73416 0.011341
        CHANNELS 3 Zrotation Xrotation Yrotation
        End Site
        {
          OFFSET -0.29 12.7742 2.51395
        }
      }
      JOINT LeftShoulder1
      {
        OFFSET 8.99 -0.362252 -0.22
        CHANNELS 3 Zrotation Xrotation Yrotation
        JOINT LeftArm
        {
          OFFSET 10.2827 -0.00337999 0.322123
          CHANNELS 3 Zrotation Xrotation Yrotation
          JOINT LeftForeArm
          {
            OFFSET 26.2597 0.099144 -1.42434
            CHANNELS 3 Zrotation Xrotation Yrotation
            JOINT LeftHand
            {
              OFFSET 22.0902 0.085362 1.02216
              CHANNELS 3 Zrotation Xrotation Yrotation
              End Site
              {
                OFFSET 13.419 -0.6 1.50291
              }
            }
          }
        }
      }
      JOINT RightShoulder
      {
        OFFSET -8.99 -0.362252 -0.22
        CHANNELS 3 Zrotation Xrotation Yrotation
        JOINT RightArm
        {
          OFFSET -10.2827 -0.00338 0.322123
          CHANNELS 3 Zrotation Xrotation Yrotation
          JOINT RightForeArm
          {
            OFFSET -26.364 0.099144 -1.42434
            CHANNELS 3 Zrotation Xrotation Yrotation
            JOINT RightHand
            {
              OFFSET -22.0324 0.085362 1.02216
              CHANNELS 3 Zrotation Xrotation Yrotation
              End Site
              {
                OFFSET -13.3284 -0.6 1.50291
              }
            }
          }
        }
      }
    }
  }
  JOINT LeftUpLeg
  {
    OFFSET 8.9458 -8.66707 0.101652
    CHANNELS 3 Zrotation Xrotation Yrotation
    JOINT LeftLeg
    {
      OFFSET 0 -44.4227 1.3727
      CHANNELS 3 Zrotation Xrotation Yrotation
      JOINT LeftFoot
      {
        OFFSET -0.253549 -42.0924 -1.46059
        CHANNELS 3 Zrotation Xrotation Yrotation
        JOINT LeftToes
        {
          OFFSET -0.04 -4.41509 8.4991
          CHANNELS 3 Zrotation Xrotation Yrotation
          End Site
          {
            OFFSET 0.08 -0.047448 9.77979
          }
        }
      }
    }
  }
}
MOTION
Frames:	7
Frame Time:	0.0333333
-134.945 102.272 -236.226 -3.41124 0.227605 52.6008 -12.6003 -8.32396 -15.3083 0.144115 16.851 1.46222 -2.55734 -1.90387 -0.00503476 0.0462048 0.000530889 0.662642 1.47337 4.86075 2.57234 -5.10771 -1.60751 3.32569 -5.95036 2.91448 27.6254 -31.7208 3.20251 -4.96286 -32.1811 -19.2614 -8.76303 -6.50954 44.6073 -7.14536 -4.11491 10.155 -0.732285 29.5827 5.01993 9.91492 33.7565 -1.89897 -1.95475 0.700533 37.1844 13.5761 -0.0386646 9.9486 2.33849 3.06887 -5.48246 6.19002 0.879546 11.7182 -6.51841 3.36883 -9.61337 0.100951 -1.33897e-009 8.75235e-006 -1.47469e-008 
-135.329 102.281 -235.956 -3.18213 0.353317 51.8608 -12.9819 -7.27162 -15.3653 0.0379049 17.0493 0.725104 -3.14637 -1.57009 0.0360022 0.0462048 0.000530889 0.662642 1.69234 4.59442 2.68146 -5.10854 -1.34164 3.43163 -6.23796 3.01996 28.1645 -31.7554 3.1539 -4.82716 -32.1556 -18.7772 -8.59231 -6.33109 44.1436 -7.66261 -4.07656 10.1547 -0.854979 29.8829 5.07822 9.96589 33.9154 -1.47774 -1.83514 0.325528 37.129 14.2456 -0.0470119 9.94776 2.30382 3.13143 -5.29463 6.22552 0.823236 11.6036 -5.88556 3.1616 -9.49358 0.0932804 -1.33897e-009 8.75235e-006 -1.47469e-008 
-135.794 102.217 -235.531 -2.88543 0.587936 51.0675 -13.0448 -6.26625 -14.3205 -0.266833 16.7897 -0.27516 -2.48224 -0.289986 0.0365848 0.0462048 0.000530889 0.662642 1.50035 4.26107 2.8361 -4.86802 -1.03098 3.53143 -6.50881 2.92638 28.42 -31.886 3.16005 -4.81477 -32.0277 -18.4679 -8.32921 -6.25876 43.7071 -7.94637 -3.99815 10.1545 -0.936248 30.0221 5.09292 9.9554 34.217 -1.11074 -1.57487 -0.0354242 37.2324 14.8015 0.207335 9.97121 2.9359 3.14614 -5.23812 6.20178 0.838712 11.7964 -5.11836 2.82834 -9.55605 0.0898182 -1.33897e-009 8.75235e-006 -1.47469e-008 
-136.411 101.913 -234.906 -2.41115 1.1004 50.202 -13.0078 -4.89528 -12.6001 -0.779596 15.3561 -1.9383 3.22264 -1.37089 -0.30778 0.0462048 0.000530889 0.662642 0.816395 3.88213 2.95025 -5.06968 -0.755647 3.60648 -6.76931 3.0335 28.9112 -31.8188 3.10948 -4.69648 -32.0741 -18.5894 -8.18671 -6.31423 43.9816 -7.78563 -4.01566 10.1544 -0.972406 30.1923 5.15435 10.0611 34.6028 -0.385056 -1.34887 -0.467275 37.2194 15.5706 0.0114406 9.95433 2.61222 3.0289 -5.77939 6.21688 0.862197 13.1848 -4.38067 2.49866 -10.2199 0.103051 -1.33897e-009 8.75235e-006 -1.47469e-008 
-137.057 101.746 -234.219 -2.01905 1.5147 49.3717 -12.7164 -3.70491 -12.141 -1.16327 12.9241 -2.06864 6.42108 -2.72534 -0.417042 0.0462048 0.000530889 0.662642 0.458894 3.57823 2.96813 -5.11004 -0.623329 3.6109 -7.07988 3.21252 29.4747 -31.8014 3.05395 -4.55413 -31.9603 -18.8261 -8.04676 -6.50797 44.311 -7.39949 -4.13365 10.1547 -0.860281 30.2891 5.19342 10.1319 35.0057 0.370348 -1.07361 -0.944875 37.198 16.3998 0.0477778 9.95705 2.63605 3.04565 -5.89676 6.23437 0.877096 13.6766 -3.6542 2.06362 -10.4225 0.0981457 -1.33897e-009 8.75235e-006 -1.47469e-008 
-137.63 101.849 -233.512 -1.8967 1.7142 48.7278 -12.0387 -2.87411 -12.4524 -1.21944 10.8668 -1.85101 5.08667 -2.94441 -0.350966 0.0462048 0.000530889 0.662642 0.830508 3.01466 2.86919 -4.88833 -0.263654 3.5288 -7.43037 3.33368 30.1333 -31.9415 3.03913 -4.48573 -31.752 -19.3746 -7.94194 -6.76086 44.6956 -6.76795 -4.20527 10.1549 -0.76382 30.3311 5.20925 10.1595 35.2565 1.3812 -0.944308 -1.53384 36.7581 17.5708 0.0617072 9.95833 2.88861 3.33101 -5.37442 6.28559 0.903747 12.7318 -3.14248 1.53138 -9.87346 0.0743086 -1.33897e-009 8.75235e-006 -1.47469e-008 
-138.252 101.96 -232.762 -1.76309 1.89843 48.1978 -11.3636 -2.14404 -12.6056 -1.10091 9.08618 -1.98772 3.42902 -3.08459 -0.279143 0.0462048 0.000530889 0.662642 1.3001 2.59412 2.73788 -4.71148 0.00851792 3.42314 -7.77705 3.21827 30.4348 -32.0247 3.05055 -4.49821 -31.7279 -20.1959 -7.92381 -7.00664 45.2261 -5.88705 -4.28736 10.163 -0.846386 30.4238 5.19506 10.0871 35.3274 2.2537 -0.915934 -2.10886 36.2692 18.727 0.0100774 9.95843 3.09179 3.60315 -4.78169 6.26194 1.00414 11.6284 -2.63954 0.975395 -9.21138 0.0536494 -1.33897e-009 8.75235e-006 -1.47469e-008 
